<svg width="76" height="63" viewBox="0 0 76 63" fill="none" xmlns="http://www.w3.org/2000/svg">
<path fill-rule="evenodd" clip-rule="evenodd" d="M10.652 2.71066C8.55923 0.141418 4.77993 -0.244843 2.21069 1.84792C-0.358551 3.94069 -0.744813 7.71999 1.34795 10.2892L44.1087 62.7857H70C73.3137 62.7857 76 60.0994 76 56.7857C76 53.472 73.3137 50.7857 70 50.7857H49.8113L10.652 2.71066ZM21.1767 52.328C23.7643 50.258 24.1838 46.4822 22.1138 43.8946C20.0437 41.3071 16.268 40.8875 13.6804 42.9576L2.25181 52.1004C-0.335765 54.1705 -0.755293 57.9463 1.31476 60.5338C3.38482 63.1214 7.16058 63.5409 9.74815 61.4709L21.1767 52.328Z" fill="white"/>
</svg>
