<svg width="24" height="24" viewBox="0 0 24 24" fill="none" xmlns="http://www.w3.org/2000/svg">
<path d="M11.5691 14.727C13.0753 14.727 14.2963 13.506 14.2963 11.9997C14.2963 10.4935 13.0753 9.27246 11.5691 9.27246C10.0628 9.27246 8.8418 10.4935 8.8418 11.9997C8.8418 13.506 10.0628 14.727 11.5691 14.727Z" stroke="white" stroke-width="1.5" stroke-linecap="round" stroke-linejoin="round"/>
<path d="M18.8418 12C18.8407 11.4763 18.7834 10.9542 18.6709 10.4427L21.1382 8.57455L19.32 5.42545L16.4627 6.63091C15.689 5.92154 14.7706 5.38839 13.7709 5.06818L13.3873 2H9.75091L9.36727 5.06818C8.36759 5.38839 7.44922 5.92154 6.67545 6.63091L3.81818 5.42545L2 8.57455L4.46727 10.4427C4.23945 11.4684 4.23945 12.5316 4.46727 13.5573L2 15.4255L3.81818 18.5745L6.67545 17.3691C7.44922 18.0785 8.36759 18.6116 9.36727 18.9318L9.75091 22H13.3873L13.7709 18.9318C14.7706 18.6116 15.689 18.0785 16.4627 17.3691L19.32 18.5745L21.1382 15.4255L18.6709 13.5573C18.7834 13.0458 18.8407 12.5237 18.8418 12Z" stroke="white" stroke-width="1.5" stroke-linecap="round"/>
</svg>
