<svg width="20" height="20" viewBox="0 0 20 20" fill="none" xmlns="http://www.w3.org/2000/svg">
<path d="M9.99854 5.07513C11.1553 5.07442 12.2751 5.48321 13.1593 6.22908L15.6361 3.87043C14.6853 2.99373 13.5433 2.35071 12.3006 1.99239C11.058 1.63407 9.74892 1.57033 8.47732 1.80621C7.20573 2.04209 6.00662 2.5711 4.97515 3.35127C3.94368 4.13144 3.10825 5.14128 2.53516 6.30066L5.32744 8.45291C5.65309 7.47093 6.27944 6.61629 7.11779 6.01007C7.95613 5.40384 8.96397 5.07675 9.99854 5.07513Z" fill="#D94F3D"/>
<path d="M5.07544 9.99858C5.07614 9.47321 5.16131 8.95137 5.32767 8.45303L2.53539 6.30078C1.96423 7.44977 1.66699 8.71545 1.66699 9.99858C1.66699 11.2817 1.96423 12.5474 2.53539 13.6964L5.32767 11.5441C5.16131 11.0458 5.07614 10.5239 5.07544 9.99858Z" fill="#F2C042"/>
<path d="M17.9902 8.48352H10.0371V11.892H14.5438C14.2758 12.8557 13.6615 13.6867 12.8188 14.2256L15.5895 16.3616C17.36 14.7725 18.4003 12.1885 17.9902 8.48352Z" fill="#5085ED"/>
<path d="M12.817 14.2256C11.9607 14.7157 10.9845 14.9568 9.99854 14.9217C8.96397 14.9201 7.95613 14.593 7.11779 13.9868C6.27944 13.3806 5.65309 12.5259 5.32744 11.5439L2.53516 13.6962C3.22485 15.0865 4.28879 16.2568 5.60729 17.0755C6.92579 17.8941 8.44656 18.3286 9.99854 18.3302C12.0407 18.3857 14.0313 17.6843 15.5876 16.3608L12.817 14.2256Z" fill="#57A75C"/>
</svg>
