<svg width="20" height="20" viewBox="0 0 20 20" fill="none" xmlns="http://www.w3.org/2000/svg">
<path d="M18.3337 13.4916C18.3337 16.525 16.5253 18.3333 13.492 18.3333H12.5003C12.042 18.3333 11.667 17.9583 11.667 17.5V12.6916C11.667 12.4666 11.8503 12.275 12.0753 12.275L13.542 12.25C13.6587 12.2416 13.7587 12.1583 13.7837 12.0416L14.0753 10.45C14.1003 10.3 13.9837 10.1583 13.8253 10.1583L12.0503 10.1833C11.817 10.1833 11.6337 9.99997 11.6253 9.77497L11.592 7.73329C11.592 7.59996 11.7003 7.4833 11.842 7.4833L13.842 7.44996C13.9836 7.44996 14.092 7.34164 14.092 7.19997L14.0587 5.19995C14.0587 5.05828 13.9503 4.94996 13.8087 4.94996L11.5587 4.9833C10.1753 5.0083 9.07534 6.14163 9.10034 7.52496L9.14199 9.81663C9.15033 10.05 8.967 10.2333 8.73367 10.2416L7.73366 10.2583C7.59199 10.2583 7.48367 10.3666 7.48367 10.5083L7.50867 12.0916C7.50867 12.2333 7.61699 12.3416 7.75866 12.3416L8.75867 12.325C8.992 12.325 9.17532 12.5083 9.18365 12.7333L9.25865 17.4833C9.26698 17.95 8.89198 18.3333 8.42531 18.3333H6.50866C3.47532 18.3333 1.66699 16.525 1.66699 13.4833V6.50829C1.66699 3.47496 3.47532 1.66663 6.50866 1.66663H13.492C16.5253 1.66663 18.3337 3.47496 18.3337 6.50829V13.4916V13.4916Z" fill="#1877F2"/>
</svg>
